<?xml version="1.0" encoding="utf-8"?>
<!-- Generator: Adobe Illustrator 28.0.0, SVG Export Plug-In . SVG Version: 6.00 Build 0)  -->
<svg version="1.1" id="Capa_1" xmlns="http://www.w3.org/2000/svg" xmlns:xlink="http://www.w3.org/1999/xlink" x="0px" y="0px"
	 viewBox="0 0 99.8 99.8" style="enable-background:new 0 0 99.8 99.8;" xml:space="preserve">
<style type="text/css">
	.st0{fill:url(#SVGID_1_);}
	.st1{fill:#FFFFFF;}
</style>
<linearGradient id="SVGID_1_" gradientUnits="userSpaceOnUse" x1="49.8437" y1="99.7979" x2="49.8437" y2="0">
	<stop  offset="0" style="stop-color:#0052A1"/>
	<stop  offset="1" style="stop-color:#0070B3"/>
</linearGradient>
<rect x="-0.15" y="0" class="st0" width="99.99" height="99.8"/>
<g>
	<g>
		<path class="st1" d="M66.92,60.52c-0.23,7.89-3.54,14.15-10.07,18.61c-4.59,3.14-9.75,4.43-15.25,3.8
			c-8.18-0.93-14.34-5.05-18.17-12.39c-3.06-5.86-3.06-11.93-0.97-18.12c2.01-5.94,4.93-11.42,8.17-16.75
			c3.37-5.54,7.11-10.82,11.08-15.95c0.55-0.71,1.16-1.38,1.68-2.11c0.41-0.57,0.7-0.54,1.13-0.01c2.19,2.7,4.28,5.48,6.3,8.31
			c2.96,4.13,5.75,8.37,8.27,12.78c2.85,4.99,5.41,10.1,6.92,15.68C66.56,56.38,66.93,58.42,66.92,60.52z"/>
		<path class="st1" d="M77.89,54.09c-1.54-5.71-4.17-10.95-7.09-16.05c-2.58-4.52-5.44-8.86-8.47-13.09
			c-2.08-2.89-4.21-5.74-6.45-8.5c-0.44-0.54-0.74-0.57-1.16,0.01c-0.54,0.75-1.16,1.43-1.72,2.16c-0.67,0.86-1.33,1.73-1.98,2.6
			c0.93,1.23,1.84,2.48,2.74,3.73c3.03,4.22,5.89,8.57,8.47,13.09c2.91,5.1,5.54,10.34,7.09,16.05c0.56,2.06,0.93,4.15,0.92,6.3
			c-0.24,8.08-3.63,14.49-10.31,19.06c-2.72,1.86-5.63,3.08-8.69,3.66c0.54,0.09,1.09,0.17,1.65,0.24
			c5.63,0.64,10.92-0.68,15.62-3.89c6.69-4.57,10.08-10.98,10.31-19.06C78.82,58.24,78.44,56.15,77.89,54.09z"/>
	</g>
</g>
</svg>
