<?xml version="1.0" encoding="UTF-8"?>
<svg id="Capa_1" data-name="Capa 1" xmlns="http://www.w3.org/2000/svg" xmlns:xlink="http://www.w3.org/1999/xlink" viewBox="0 0 99.8 99.8">
  <defs>
    <style>
      .cls-1 {
        fill: #fff;
      }

      .cls-1, .cls-2 {
        stroke-width: 0px;
      }

      .cls-2 {
        fill: url(#Degradado_sin_nombre_11);
      }
    </style>
    <linearGradient id="Degradado_sin_nombre_11" data-name="Degradado sin nombre 11" x1="49.9" y1="99.8" x2="49.9" y2="0" gradientUnits="userSpaceOnUse">
      <stop offset="0" stop-color="#0052a1"/>
      <stop offset="1" stop-color="#0070b3"/>
    </linearGradient>
  </defs>
  <rect class="cls-2" y="0" width="99.8" height="99.8"/>
  <g>
    <path class="cls-1" d="m50.78,67.01c-4.49,0-8.99,0-13.48,0-4.82,0-9.63,0-14.45,0-3.7,0-6.99-2.53-7.81-6-.85-3.59.94-7.22,4.36-8.82.89-.41,1.71-.64,2.5-.7.19,1.34.5,1.5,2.11,1.5.14,0,.28,0,.43,0,.31,0,.6-.02.88.02.16.02.34.12.38.18,1.12,1.62,2.71,2.42,4.72,2.39.43,0,.87,0,1.3,0,.07,0,.15,0,.22,0,.08.45.33,1.05,1.18,1.12.96.08,1.3-.56,1.45-1.08h20.55c.12.47.39,1.06,1.24,1.09.97.04,1.27-.63,1.38-1.13h.25c.44,0,.86,0,1.28,0,3.25,0,5.44-2.14,5.45-5.29,0-2.15,0-4.3,0-6.45,0-.98,0-1.96,0-2.94,0-1.7-.52-3.1-1.5-4.06-.98-.95-2.41-1.46-4.15-1.46h0c-4.09,0-8.19,0-12.28,0h-5.61s0-.04.01-.05c.04-.19.09-.49.16-.54.33-.25.94-.72.7-1.58-.17-.61-.68-.92-1.49-.92-.47,0-.93,0-1.4,0-.42,0-.83,0-1.25,0-.41,0-.82,0-1.23,0-1.31,0-2.67,0-4.01.04-.44.01-1.07.38-1.23.83-.14.4.03,1.25.5,1.46.33.15.33.24.27.67,0,.03,0,.06-.01.09-.14,0-.29,0-.43,0-.58,0-1.13-.01-1.69,0-3.01.11-5.12,2.23-5.14,5.15-.01,1.46,0,2.95,0,4.39,0,.65,0,1.3,0,1.94v.39c-.08,0-.16,0-.23,0-.47,0-.91,0-1.36,0-.9.03-1.38.49-1.43,1.38,0,.08-.01.15-.02.23,0,0,0,0-.01,0-.26.03-.5.05-.75.09-2.67.43-5.05,1.8-6.7,3.86-1.66,2.06-2.45,4.64-2.24,7.25.44,5.35,5.16,9.53,10.75,9.53h.02c7.62-.01,15.37,0,22.87,0h4.92c1.03,0,1.78.67,1.78,1.59,0,.88-.74,1.57-1.72,1.61-.44.02-.9.01-1.34,0-.19,0-.38,0-.57,0h-4.33c-3.69,0-7.38,0-11.07,0-1.27,0-1.56.68-1.57,1.25,0,.47.18.76.34.91.26.26.63.39,1.12.39h1.95c2.28,0,4.6,0,6.93,0,2.91,0,5.84,0,8.74-.01,1.58,0,2.83-.74,3.63-2.14.75-1.31.74-2.85-.03-4.12-.79-1.31-2.22-2.09-3.83-2.09Zm5.67-25.71c-.77-.02-1.32.55-1.34,1.42,0,.28,0,.56,0,.83,0,.12,0,.24,0,.37v9.01h-20.53v-2.39c0-2.48,0-4.96,0-7.44v-.08c0-.21,0-.45-.05-.69-.15-.67-.68-1.06-1.37-1.02-.69.05-1.16.5-1.22,1.18-.01.15-.01.3,0,.44,0,.05,0,.1,0,.15v9.85c-.17,0-.34,0-.5.01-.65.02-1.26.04-1.84-.04-1.07-.14-1.95-1.14-1.96-2.23-.03-4.02-.03-7.33,0-10.43.01-1.31,1.12-2.28,2.62-2.31.94-.02,1.9-.01,2.83-.01.41,0,.83,0,1.24,0h24.77c1.96,0,2.96.95,2.97,2.83.01,2.98.01,6.08,0,9.46,0,1.82-.97,2.75-2.88,2.76-.4,0-.8,0-1.22,0h-.22s0-9.93,0-9.93c0-.03,0-.07,0-.1,0-.06,0-.12,0-.19-.02-.89-.51-1.43-1.29-1.45Zm-21.53-5.99v-.41h3.57v.41h-3.57Z"/>
    <path class="cls-1" d="m87.63,50.5c0-2.2-1.26-3.55-3.55-3.81-.8-.09-1.61-.2-2.4-.3-.86-.11-1.76-.23-2.64-.33-.34-.04-.4-.09-.45-.39-.18-1.07-.43-2.14-.67-3.17v-.05c-.47-1.97-1.98-3.14-4.06-3.15-1.95,0-3.31,0-4.98,0-1.98,0-3.22,1.21-3.22,3.14,0,2.01,0,4.03,0,6.04v3.23c0,.57,0,1.15,0,1.72,0,.82.51,1.36,1.31,1.38.78,0,1.31-.51,1.36-1.33,0-.13,0-.25,0-.37,0-.05,0-.1,0-.14v-2.96c0-2.47,0-4.94,0-7.41q0-.72.75-.72c1.74,0,2.88,0,4.62,0,1.05,0,1.45.33,1.67,1.33.11.51.22,1.02.33,1.53.18.81.36,1.66.53,2.48.15.76.61,1.15,1.42,1.25,1.6.19,3.22.4,4.79.61.5.07,1.01.13,1.51.2.99.13.99.68.99.86.02,3.06.02,6.29,0,9.6,0,.48-.36.84-.86.85-.62.02-1.23.02-1.88.01-.17,0-.34,0-.51,0-.03-.11-.05-.21-.07-.32-.33-1.43-1.26-2.67-2.56-3.41-1.31-.74-2.84-.91-4.3-.48-2.36.71-3.97,2.92-3.82,5.28.15,2.43,1.93,4.44,4.33,4.88.37.07.74.1,1.11.1,2.13,0,4.01-1.16,4.88-3.1.16-.35.26-.38.59-.36.47.03.95.02,1.41.01.18,0,.37,0,.55,0,2.31-.01,3.81-1.47,3.82-3.73,0-2.81,0-5.74,0-8.98Zm-11.3,13.58c-1.47,0-2.72-1.22-2.72-2.65,0-.71.29-1.38.81-1.89.52-.51,1.21-.79,1.94-.79h.02c1.49,0,2.71,1.2,2.71,2.65,0,.72-.28,1.39-.81,1.9-.52.51-1.22.78-1.95.78Z"/>
    <path class="cls-1" d="m27.97,59.18c0,.23,0,.46,0,.69.03,2.02,1.4,3.35,3.47,3.38h.35c.74.02,1.5.03,2.25,0,.35-.02.47.03.65.41.91,1.9,2.81,3.03,4.85,3.03.62,0,1.25-.11,1.87-.33,2.63-.93,4.08-3.63,3.38-6.27-.63-2.37-2.91-4.02-5.41-3.92-2.53.1-4.68,1.9-5.11,4.29-.03.19-.07.24-.07.24,0,0-.05.02-.22.02-.44-.02-.89-.01-1.32,0-.37,0-.75,0-1.12,0-.65-.02-.89-.26-.9-.9,0-.37,0-.75,0-1.12,0-.39,0-.78,0-1.17-.01-.79-.5-1.3-1.27-1.33-.79-.03-1.34.48-1.39,1.3-.02.32-.01.64,0,.95,0,.13,0,.26,0,.39h0c0,.12,0,.24,0,.36Zm11.61,4.9c-.72,0-1.41-.28-1.94-.78-.53-.51-.82-1.17-.82-1.87,0-1.43,1.24-2.65,2.71-2.67.01,0,.02,0,.03,0,.73,0,1.41.27,1.92.76.52.5.81,1.17.81,1.89,0,1.46-1.2,2.66-2.69,2.67,0,0-.02,0-.03,0Z"/>
    <path class="cls-1" d="m68.97,60.7h0c-4.85,0-9.7,0-14.56,0h-7.43s-.07,0-.1,0c-.2-.01-.48-.02-.68.17-.03.03-.07.06-.1.1-.29.28-.66.62-.63,1.04.04.45.44.81.82,1.12.15.12.33.15.51.15.08,0,.16,0,.24-.01.05,0,.11,0,.16,0,2.46,0,4.92,0,7.38,0h6.11c2.76,0,5.51,0,8.27,0,.65,0,1.01-.23,1.2-.42.23-.24.33-.55.31-.91-.04-.56-.33-1.22-1.5-1.22Z"/>
  </g>
</svg>