<?xml version="1.0" encoding="UTF-8"?>
<svg id="Capa_1" data-name="Capa 1" xmlns="http://www.w3.org/2000/svg" xmlns:xlink="http://www.w3.org/1999/xlink" viewBox="0 0 99.8 99.8">
  <defs>
    <style>
      .cls-1 {
        fill: #fff;
      }

      .cls-1, .cls-2 {
        stroke-width: 0px;
      }

      .cls-2 {
        fill: url(#Degradado_sin_nombre_11);
      }
    </style>
    <linearGradient id="Degradado_sin_nombre_11" data-name="Degradado sin nombre 11" x1="49.9" y1="99.8" x2="49.9" y2="0" gradientUnits="userSpaceOnUse">
      <stop offset="0" stop-color="#0052a1"/>
      <stop offset="1" stop-color="#0070b3"/>
    </linearGradient>
  </defs>
  <rect class="cls-2" y="0" width="99.8" height="99.8"/>
  <g>
    <path class="cls-1" d="m58.61,26.87h-2.53c-.07-3.36-2.09-6.05-4.57-6.05s-4.5,2.69-4.57,6.05h-1.87c-1.26,0-2.29,1.03-2.29,2.29v2.81c0,1.26,1.03,2.29,2.29,2.29h13.55c1.26,0,2.29-1.03,2.29-2.29v-2.81c0-1.26-1.03-2.29-2.29-2.29Zm-9.26-1.98c0-1.19.97-2.16,2.16-2.16s2.16.97,2.16,2.16c0,.89-.54,1.65-1.3,1.98h-1.72c-.76-.33-1.3-1.09-1.3-1.98Z"/>
    <g>
      <polygon class="cls-1" points="58.87 57.49 57.69 64.17 64.1 62.01 58.87 57.49"/>
      <polygon class="cls-1" points="60.9 55.66 74.7 40.68 79.15 44.86 65.94 59.78 60.9 55.66"/>
    </g>
    <g>
      <path class="cls-1" d="m67.13,32.8v14.19l4.31-4.68v-9.52c0-2.44-1.98-4.42-4.42-4.42h-3.87v4.31h3.87c.06,0,.11.05.11.11Z"/>
      <path class="cls-1" d="m67.13,60.39v8.13c0,.06-.05.11-.11.11h-30.96c-.06,0-.11-.05-.11-.11v-35.72c0-.06.05-.11.11-.11h3.54v-4.31h-3.54c-2.44,0-4.42,1.98-4.42,4.42v35.72c0,2.44,1.98,4.42,4.42,4.42h30.96c2.44,0,4.42-1.98,4.42-4.42v-12.99l-4.31,4.86Z"/>
    </g>
    <rect class="cls-1" x="41.17" y="38.68" width="20.61" height="3.34" rx=".82" ry=".82"/>
    <rect class="cls-1" x="41.17" y="46.04" width="20.61" height="3.34" rx=".82" ry=".82"/>
    <rect class="cls-1" x="41.17" y="53.4" width="14.33" height="3.34" rx=".71" ry=".71"/>
    <rect class="cls-1" x="41.17" y="60.77" width="14.33" height="3.34" rx=".82" ry=".82"/>
  </g>
</svg>