<svg height="480pt" viewBox="0 0 480 480.00003" width="480pt" xmlns="http://www.w3.org/2000/svg"><g fill="#8f583c"><path d="m8 248h464v32h-464zm0 0"/><path d="m8 280h32v192h-32zm0 0"/><path d="m440 280h32v192h-32zm0 0"/></g><path d="m472 32c0-13.253906-10.746094-24-24-24h-192c-13.253906 0-24 10.746094-24 24v112h240zm0 0" fill="#87ced9"/><path d="m392 248h-80l16-64h48zm0 0" fill="#dedede"/><path d="m232 144v16c0 13.253906 10.746094 24 24 24h192c13.253906 0 24-10.746094 24-24v-16zm0 0" fill="#dedede"/><path d="m216 320v-112c0-17.671875-14.328125-32-32-32h-80c-17.671875 0-32 14.328125-32 32v120c0 17.671875 14.328125 32 32 32h148c11.046875 0 20-8.953125 20-20s-8.953125-20-20-20zm0 0" fill="#4398d1"/><path d="m224 424h-48v-64h-32v64h-48c-12.21875-.050781-22.523438 9.085938-23.9375 21.222656-1.414062 12.132813 6.511719 23.394532 18.414062 26.15625 11.902344 2.761719 23.980469-3.859375 28.050782-15.378906h82.945312c4.085938 11.476562 16.136719 18.058594 28.003906 15.296875 11.863282-2.761719 19.769532-13.988281 18.367188-26.09375-1.402344-12.101563-11.660156-21.226563-23.84375-21.203125zm0 0" fill="#dedede"/><path d="m144 360h32v16h-32zm0 0" fill="#c7c7c7"/><path d="m252 320h-36v-112c-.03125-13.839844-8.984375-26.082031-22.167969-30.304688-13.542969 66.617188-42.652343 129.085938-84.953125 182.304688h143.121094c11.046875 0 20-8.953125 20-20s-8.953125-20-20-20zm0 0" fill="#3087c2"/><path d="m400 472h-80l-8-112h96zm0 0" fill="#4398d1"/><path d="m380 200-4-16h-48l-4 16zm0 0" fill="#c7c7c7"/><path d="m319.464844 464.535156.535156 7.464844h80l6.769531-94.769531zm0 0" fill="#3087c2"/><path d="m448 8h-24l-136 136h184v-112c0-13.253906-10.746094-24-24-24zm0 0" fill="#71c4d1"/><path d="m216 248h24v32h-24zm0 0" fill="#73442e"/><path d="m306.34375 106.347656 64-64 11.316406 11.3125-64.003906 64zm0 0" fill="#95e4f0"/><path d="m298.347656 66.34375 32.003906-32 11.3125 11.3125-32 32.003906zm0 0" fill="#95e4f0"/><path d="m354.34375 106.34375 32-32 11.3125 11.3125-32 32zm0 0" fill="#95e4f0"/><path d="m448 0h-192c-17.671875 0-32 14.328125-32 32v128c0 17.671875 14.328125 32 32 32h61.761719l-12 48h-81.761719v-32c-.027344-22.082031-17.917969-39.972656-40-40h-80c-22.082031.027344-39.972656 17.917969-40 40v32h-56c-4.417969 0-8 3.582031-8 8v224c0 4.417969 3.582031 8 8 8h32c4.417969 0 8-3.582031 8-8v-184h16v40c.027344 22.082031 17.917969 39.972656 40 40h32v48h-40c-15.550781-.078125-28.902344 11.03125-31.65625 26.335938-2.75 15.304687 5.898438 30.371093 20.5 35.714843s30.933594-.585937 38.707031-14.050781h72.898438c7.789062 13.398438 24.070312 19.273438 38.621093 13.933594 14.546876-5.339844 23.164063-20.355469 20.4375-35.609375-2.726562-15.257813-16.011718-26.355469-31.507812-26.324219h-40v-48h68c15.464844 0 28-12.535156 28-28s-12.535156-28-28-28h-28v-24h208v184c0 4.417969 3.582031 8 8 8h32c4.417969 0 8-3.582031 8-8v-224c0-4.417969-3.582031-8-8-8h-73.761719l-12-48h61.761719c17.671875 0 32-14.328125 32-32v-128c0-17.671875-14.328125-32-32-32zm-416 464h-16v-176h16zm8-192h-24v-16h48v16zm200-240c0-8.835938 7.164062-16 16-16h192c8.835938 0 16 7.164062 16 16v104h-224zm-144 432c-8.835938 0-16-7.164062-16-16s7.164062-16 16-16 16 7.164062 16 16-7.164062 16-16 16zm144-16c0 8.835938-7.164062 16-16 16s-16-7.164062-16-16 7.164062-16 16-16 16 7.164062 16 16zm-64-16h20.449219c-2.878907 4.84375-4.417969 10.367188-4.449219 16h-64c-.03125-5.632812-1.570312-11.15625-4.449219-16h20.449219c4.417969 0 8-3.582031 8-8v-56h16v56c0 4.417969 3.582031 8 8 8zm76-104c6.628906 0 12 5.371094 12 12s-5.371094 12-12 12h-148c-13.253906 0-24-10.746094-24-24v-120c0-13.253906 10.746094-24 24-24h80c13.253906 0 24 10.746094 24 24v112c0 4.417969 3.582031 8 8 8zm212 136h-16v-176h16zm0-192h-240v-16h240zm-82.246094-32h-59.507812l12-48h35.507812zm82.246094-80c0 8.835938-7.164062 16-16 16h-192c-8.835938 0-16-7.164062-16-16v-8h224zm0 0"/><path d="m408 352h-96c-2.222656-.003906-4.351562.914062-5.867188 2.539062-1.519531 1.625-2.289062 3.8125-2.132812 6.027344l8 112c.296875 4.195313 3.792969 7.445313 8 7.433594h80c4.207031.011719 7.703125-3.238281 8-7.433594l8-112c.15625-2.214844-.613281-4.402344-2.132812-6.027344-1.515626-1.625-3.644532-2.542968-5.867188-2.539062zm-15.449219 112h-65.101562l-6.855469-96h78.8125zm0 0"/><path d="m306.34375 106.347656 64-64 11.316406 11.3125-64.003906 64zm0 0"/><path d="m298.347656 66.34375 32.003906-32 11.3125 11.3125-32 32.003906zm0 0"/><path d="m354.34375 106.34375 32-32 11.3125 11.3125-32 32zm0 0"/></svg>