<?xml version="1.0" encoding="utf-8"?>
<!-- Generator: Adobe Illustrator 28.0.0, SVG Export Plug-In . SVG Version: 6.00 Build 0)  -->
<svg version="1.1" id="Capa_1" xmlns="http://www.w3.org/2000/svg" xmlns:xlink="http://www.w3.org/1999/xlink" x="0px" y="0px"
	 viewBox="0 0 99.8 99.8" style="enable-background:new 0 0 99.8 99.8;" xml:space="preserve">
<style type="text/css">
	.st0{fill:url(#SVGID_1_);}
	.st1{fill:url(#SVGID_00000130615439559269226650000017768467898751366299_);}
	.st2{fill:#008ED0;}
</style>
<radialGradient id="SVGID_1_" cx="49.924" cy="49.3291" r="85.0173" gradientUnits="userSpaceOnUse">
	<stop  offset="0" style="stop-color:#FFFFFF"/>
	<stop  offset="0.8886" style="stop-color:#C9DCE6"/>
</radialGradient>
<rect x="0.03" y="-0.57" class="st0" width="99.8" height="99.8"/>
<g>
	<g>
		
			<linearGradient id="SVGID_00000010279507710560219940000016722285420598494625_" gradientUnits="userSpaceOnUse" x1="43.3439" y1="82.524" x2="43.3439" y2="16.6316">
			<stop  offset="0" style="stop-color:#005695"/>
			<stop  offset="1" style="stop-color:#006AA5"/>
		</linearGradient>
		<path style="fill:url(#SVGID_00000010279507710560219940000016722285420598494625_);" d="M66.31,59.95
			c-0.23,7.89-3.54,14.15-10.07,18.61c-4.59,3.14-9.75,4.43-15.25,3.8c-8.18-0.93-14.34-5.05-18.17-12.39
			c-3.06-5.86-3.06-11.93-0.97-18.12c2.01-5.94,4.93-11.42,8.17-16.75c3.37-5.54,7.11-10.82,11.08-15.95
			c0.55-0.71,1.16-1.38,1.68-2.11c0.41-0.57,0.7-0.54,1.13-0.01c2.19,2.7,4.28,5.48,6.3,8.31c2.96,4.13,5.75,8.37,8.27,12.78
			c2.85,4.99,5.41,10.1,6.92,15.68C65.95,55.81,66.32,57.85,66.31,59.95z"/>
		<path class="st2" d="M77.28,53.52c-1.54-5.71-4.17-10.95-7.09-16.05c-2.58-4.52-5.44-8.86-8.47-13.09
			c-2.08-2.89-4.21-5.74-6.45-8.5c-0.44-0.54-0.74-0.57-1.16,0.01c-0.54,0.75-1.16,1.43-1.72,2.16c-0.67,0.86-1.33,1.73-1.98,2.6
			c0.93,1.23,1.84,2.48,2.74,3.73c3.03,4.22,5.89,8.57,8.47,13.09c2.91,5.1,5.54,10.34,7.09,16.05c0.56,2.06,0.93,4.15,0.92,6.3
			C69.39,67.9,66,74.31,59.31,78.88c-2.72,1.86-5.63,3.08-8.69,3.66c0.54,0.09,1.09,0.17,1.65,0.24c5.63,0.64,10.92-0.68,15.62-3.89
			c6.69-4.57,10.08-10.98,10.31-19.06C78.21,57.67,77.84,55.58,77.28,53.52z"/>
	</g>
</g>
</svg>
